<svg width="1202" height="369" viewBox="0 0 1202 369" fill="none" xmlns="http://www.w3.org/2000/svg">
<g clip-path="url(#clip0_2401_317)">
<path fill-rule="evenodd" clip-rule="evenodd" d="M58.3798 122.485L30.8156 125.586C30.8156 125.586 -9.75148 126.619 2.20927 168.987L55.2581 337.949C55.2581 337.949 65.75 380.739 115.595 365.857L149.402 356.556L99.9913 300.75C99.9913 300.75 4.28879 189.133 58.3798 122.485Z" fill="#8EC440"/>
<path fill-rule="evenodd" clip-rule="evenodd" d="M210.774 105.946L235.219 102.845C235.219 102.845 264.565 95.8722 277.865 131.781L325.718 271.294C325.718 271.294 339.958 307.706 300.231 316.248L204.533 341.568L129.633 251.146C129.633 251.146 200.89 271.802 233.655 198.949C233.655 198.949 254.986 158.651 210.774 105.946Z" fill="#8EC440"/>
<path fill-rule="evenodd" clip-rule="evenodd" d="M197.248 171.049C197.248 201.298 172.567 225.819 142.117 225.819C111.667 225.819 86.9814 201.298 86.9814 171.049C86.9814 140.799 111.664 116.278 142.117 116.278C172.569 116.278 197.248 140.799 197.248 171.049Z" fill="#CCDD5E"/>
<path fill-rule="evenodd" clip-rule="evenodd" d="M228.108 79.7952C228.108 92.1481 218.031 102.161 205.596 102.161C193.162 102.161 183.08 92.1481 183.08 79.7952C183.08 67.4422 193.162 57.4315 205.596 57.4315C218.031 57.4315 228.108 67.4469 228.108 79.7952Z" fill="#CCDD5E"/>
<path fill-rule="evenodd" clip-rule="evenodd" d="M253.85 44.4391C253.85 53.8549 246.166 61.4883 236.688 61.4883C227.21 61.4883 219.528 53.8549 219.528 44.4391C219.528 35.0234 227.21 27.3877 236.688 27.3877C246.166 27.3877 253.85 35.021 253.85 44.4391Z" fill="#CCDD5E"/>
<path fill-rule="evenodd" clip-rule="evenodd" d="M279.855 12.6574C279.855 19.6513 274.152 25.3172 267.114 25.3172C260.076 25.3172 254.371 19.6513 254.371 12.6574C254.371 5.66352 260.076 0 267.114 0C274.152 0 279.855 5.6682 279.855 12.6574Z" fill="#CCDD5E"/>
<path d="M455.768 222.421H391.128C389.24 222.421 387.707 223.941 387.707 225.819V327.477C387.707 329.353 389.237 330.873 391.128 330.873C393.019 330.873 394.549 329.353 394.549 327.477V286.535L454.332 285.771C479.088 285.771 481.309 267.558 481.302 267.558C484.211 249.577 481.905 236.624 474.445 229.056C467.139 221.648 457.545 222.224 455.765 222.418L455.768 222.421ZM474.53 266.63C474.467 267.134 472.755 278.974 454.292 278.974L394.552 279.738V229.213H455.966C456.124 229.213 456.282 229.202 456.44 229.18C456.517 229.178 464.034 228.201 469.565 233.811C475.339 239.669 477.063 250.963 474.533 266.628L474.53 266.63Z" fill="white"/>
<path d="M574.661 253.27C563.551 244.143 545.314 248.979 544.545 249.192C542.725 249.691 541.652 251.56 542.155 253.371C542.655 255.179 544.522 256.245 546.359 255.746C550.654 254.57 563.334 252.778 570.301 258.505C573.96 261.515 575.814 266.389 575.818 273.2H526.74C502.441 273.2 499.312 288.188 498.961 290.697C496.879 302.127 498.28 310.99 503.123 317.04C508.618 323.903 516.486 324.348 517.005 324.366L557.414 324.067C565.803 324.662 572.315 322.849 576.82 318.679C582.602 313.332 582.67 306.113 582.67 305.793L582.512 276.866C583.368 266.19 580.727 258.25 574.663 253.268L574.661 253.27ZM572.091 313.77C569.028 316.557 564.258 317.747 557.631 317.284L517.139 317.576C517.087 317.576 512.004 317.22 508.477 312.81C504.907 308.355 503.974 301.307 505.702 291.87C505.718 291.772 505.74 291.622 505.747 291.521C505.791 291.051 507.022 279.998 526.742 279.998H575.698L575.83 305.785C575.83 305.83 575.712 310.479 572.095 313.773L572.091 313.77Z" fill="white"/>
<path d="M776.572 253.832C765.462 244.705 747.223 249.541 746.452 249.755C744.636 250.251 743.566 252.118 744.063 253.926C744.558 255.737 746.447 256.795 748.262 256.311C748.416 256.266 763.875 252.198 772.224 259.081C775.878 262.089 777.722 266.956 777.729 273.762H728.651C704.345 273.762 701.223 288.75 700.872 291.259C698.792 302.689 700.188 311.552 705.031 317.6C710.527 324.462 718.397 324.907 718.911 324.929L759.32 324.629C767.704 325.221 774.223 323.408 778.729 319.239C784.51 313.892 784.576 306.673 784.576 306.352L784.42 277.428C785.279 266.752 782.636 258.814 776.574 253.83L776.572 253.832ZM774.002 314.33C770.934 317.12 766.162 318.312 759.539 317.843L719.048 318.138C718.996 318.138 713.913 317.78 710.385 313.372C706.816 308.915 705.882 301.869 707.606 292.432C707.632 292.301 707.648 292.17 707.655 292.039C707.662 291.922 708.608 280.56 728.648 280.56H777.604L777.736 306.345C777.736 306.395 777.616 311.039 774.002 314.33Z" fill="white"/>
<path d="M692.684 242.744C691.008 241.857 688.942 242.487 688.056 244.14L647.116 320.314L605.405 244.119C604.505 242.47 602.423 241.859 600.768 242.756C599.108 243.653 598.493 245.717 599.398 247.363L644.141 329.098C644.739 330.192 645.895 330.873 647.147 330.873H647.159C648.415 330.869 649.568 330.18 650.162 329.077L694.087 247.342C694.976 245.689 694.348 243.63 692.684 242.744Z" fill="white"/>
<path d="M817.985 218.537C816.099 218.537 814.564 220.06 814.564 221.934V327.477C814.564 329.353 816.097 330.873 817.985 330.873C819.874 330.873 821.406 329.353 821.406 327.477V221.934C821.406 220.06 819.871 218.537 817.985 218.537Z" fill="white"/>
<path d="M956.287 271.308H922.833C898.605 271.982 897.896 258.639 897.879 258.13L897.865 246.045C898.374 240.437 901.102 236.706 904.443 233.336C913.327 224.377 932.691 229.033 932.872 229.063C934.737 229.412 936.517 228.197 936.869 226.356C937.215 224.515 935.999 222.737 934.15 222.388C933.283 222.222 912.874 218.505 900.341 227.902C894.859 232.012 891.737 237.91 891.042 245.742V258.154C891.044 258.428 891.152 264.97 896.941 270.514C902.559 275.899 911.339 278.435 922.937 278.103H956.242C956.289 278.103 961.09 278.276 964.758 282.204C968.139 285.823 969.615 291.521 969.137 299.347C969.137 299.429 969.047 307.507 963.676 312.791C960.451 315.965 955.853 317.576 949.997 317.576H890.393C888.505 317.576 886.972 319.096 886.972 320.973C886.972 322.849 888.505 324.371 890.393 324.371H950.02C957.758 324.371 963.992 322.08 968.55 317.562C975.941 310.238 975.981 299.775 975.969 299.553C976.561 290.008 974.475 282.616 969.768 277.58C964.068 271.479 956.648 271.313 956.287 271.308Z" fill="white"/>
<path d="M1072.19 255.163C1065.02 247.813 1055.16 247.726 1054.73 247.726H1031.2L1030.11 247.717C1019.63 247.717 1011.64 250.565 1006.38 256.184C999.443 263.585 1000.03 272.994 1000.05 273.149V303.663C1001.65 323.333 1018.33 324.861 1023.4 324.861C1024.47 324.861 1025.25 324.802 1025.62 324.765H1058.05C1074.88 324.395 1079.31 312.206 1079.3 305.814V276.709C1079.59 267.549 1077.2 260.302 1072.19 255.163ZM1072.46 305.816C1072.46 306.298 1072.31 317.654 1057.98 317.967H1025.44C1025.31 317.967 1025.16 317.974 1025.03 317.991C1024.95 318 1024.34 318.063 1023.4 318.063C1017.68 318.063 1007.93 316.122 1006.88 303.387L1006.89 272.922C1006.89 272.854 1006.52 265.942 1011.44 260.747C1015.37 256.608 1021.64 254.509 1030.1 254.509L1054.73 254.521C1054.8 254.521 1062.18 254.662 1067.27 259.889C1070.95 263.656 1072.69 269.24 1072.46 276.599V305.816H1072.46Z" fill="white"/>
<path d="M1119.12 236.09C1124.32 229.789 1133.75 229.122 1133.64 229.122H1143.4C1145.29 229.122 1146.82 227.599 1146.82 225.723C1146.82 223.847 1145.29 222.327 1143.4 222.327L1133.44 222.332C1132.94 222.362 1121 223.14 1113.87 231.731C1109.65 236.807 1108.04 243.4 1109.07 251.333V327.475C1109.07 329.351 1110.6 330.871 1112.49 330.871C1114.38 330.871 1115.91 329.351 1115.91 327.475V254.509H1143.41C1145.29 254.509 1146.83 252.987 1146.83 251.111C1146.83 249.235 1145.29 247.715 1143.41 247.715H1115.7C1115.56 243.009 1116.65 239.076 1119.12 236.09H1119.12Z" fill="white"/>
<path d="M1198.58 248.876H1170.41V221.934C1170.41 220.06 1168.88 218.537 1166.99 218.537C1165.1 218.537 1163.57 220.06 1163.57 221.934V248.876H1156.1C1154.21 248.876 1152.68 250.399 1152.68 252.275C1152.68 254.151 1154.21 255.671 1156.1 255.671H1163.57V327.477C1163.57 329.353 1165.1 330.873 1166.99 330.873C1168.88 330.873 1170.41 329.353 1170.41 327.477V255.671H1198.58C1200.47 255.671 1202 254.153 1202 252.275C1202 250.396 1200.47 248.876 1198.58 248.876Z" fill="white"/>
</g>
<defs>
<clipPath id="clip0_2401_317">
<rect width="1202" height="369" fill="white"/>
</clipPath>
</defs>
</svg>
